# xmcd CD database file
#
# Track frame offsets:
#	150
#	17029
#	32142
#	45913
#	60695
#	77665
#	91691
#	107777
#	122447
#	143275
#	158741
#	173575
#
# Disc length: 2522 seconds
#
# Revision: 0
# Processed by: cddbd v1.5.2PL0 Copyright (c) Steve Scherf et al.
# Submitted via: CDex 1.70beta2
#
DISCID=7f09d80c
DTITLE=John Barr - Where I stand
DYEAR=2002
DGENRE=Country
TTITLE0=He'll be home
TTITLE1=Where I stand
TTITLE2=Tn. line
TTITLE3=If ya gotta mind to
TTITLE4=Songs
TTITLE5=Gone fishin'
TTITLE6=Only love
TTITLE7=Whoa Nellie
TTITLE8=Such a fool
TTITLE9=Lets pretend
TTITLE10=Back the truck
TTITLE11=Right lane to heaven
EXTD=YEAR: 2002
EXTT0=
EXTT1=
EXTT2=
EXTT3=
EXTT4=
EXTT5=
EXTT6=
EXTT7=
EXTT8=
EXTT9=
EXTT10=
EXTT11=
PLAYORDER=
